<?xml version="1.0" standalone="no"?><!DOCTYPE svg PUBLIC "-//W3C//DTD SVG 1.1//EN" "http://www.w3.org/Graphics/SVG/1.1/DTD/svg11.dtd"><svg xmlns:xlink="http://www.w3.org/1999/xlink" version="1.1" class="highcharts-root" style="font-family: sans-serif; font-size: 1rem;" xmlns="http://www.w3.org/2000/svg" width="600" height="400" viewBox="0 0 600 400" aria-label="Interactive chart" aria-hidden="false"><desc aria-hidden="true">Created with Highcharts 11.1.0</desc><defs aria-hidden="true"><filter id="highcharts-drop-shadow-1"><feDropShadow dx="1" dy="1" flood-color="#000000" flood-opacity="0.75" stdDeviation="2.5"></feDropShadow></filter><clipPath id="highcharts-ylettyw-58-"><rect x="0" y="0" width="534" height="253" fill="none"></rect></clipPath><clipPath id="highcharts-ylettyw-84-"><rect x="0" y="0" width="534" height="253" fill="none"></rect></clipPath></defs><rect fill="#ffffff" class="highcharts-background" filter="none" x="0" y="0" width="600" height="400" rx="0" ry="0" aria-hidden="true"></rect><rect fill="none" class="highcharts-plot-background" x="56" y="61" width="534" height="253" filter="none" aria-hidden="true"></rect><g class="highcharts-plot-bands-0" data-z-index="0" aria-hidden="true"><path fill="rgb(68, 170, 213)" fill-opacity=" 0.1" class="highcharts-plot-band " d="M 56 301.5 L 590 301.5 L 590 251.5 L 56 251.5 Z"></path><path fill="rgb(0, 0, 0)" fill-opacity=" 0" class="highcharts-plot-band " d="M 56 251.5 L 590 251.5 L 590 175.5 L 56 175.5 Z"></path><path fill="rgb(68, 170, 213)" fill-opacity=" 0.1" class="highcharts-plot-band " d="M 56 175.5 L 590 175.5 L 590 82.5 L 56 82.5 Z"></path><path fill="rgb(0, 0, 0)" fill-opacity=" 0" class="highcharts-plot-band " d="M 56 82.5 L 590 82.5 L 590 61.5 L 56 61.5 Z"></path><path fill="rgb(68, 170, 213)" fill-opacity=" 0.1" class="highcharts-plot-band " d="M 56 61.5 L 590 61.5 L 590 61.5 L 56 61.5 Z"></path><path fill="rgb(0, 0, 0)" fill-opacity=" 0" class="highcharts-plot-band " d="M 56 61.5 L 590 61.5 L 590 61.5 L 56 61.5 Z"></path><path fill="rgb(68, 170, 213)" fill-opacity=" 0.1" class="highcharts-plot-band " d="M 56 61.5 L 590 61.5 L 590 61.5 L 56 61.5 Z"></path></g><text x="66" class="highcharts-plot-band-label " data-z-index="0" transform="translate(0,0)" style="font-size: 0.8em; color: rgb(96, 96, 96); fill: rgb(247, 0, 0);" y="283" aria-hidden="true">Light air</text><text x="66" class="highcharts-plot-band-label " data-z-index="0" transform="translate(0,0)" style="font-size: 0.8em; color: rgb(96, 96, 96); fill: rgb(96, 96, 96);" y="220" aria-hidden="true">Light breeze</text><text x="66" class="highcharts-plot-band-label " data-z-index="0" transform="translate(0,0)" style="font-size: 0.8em; color: rgb(96, 96, 96); fill: rgb(96, 96, 96);" y="135" aria-hidden="true">Gentle breeze</text><text x="66" class="highcharts-plot-band-label " data-z-index="0" transform="translate(0,0)" style="font-size: 0.8em; color: rgb(96, 96, 96); fill: rgb(96, 96, 96);" y="78" aria-hidden="true">Moderate breeze</text><g class="highcharts-grid highcharts-xaxis-grid" data-z-index="1" aria-hidden="true"><path fill="none" stroke="#e6e6e6" stroke-width="0" stroke-dasharray="none" data-z-index="1" class="highcharts-grid-line" d="M 60.5 61 L 60.5 314" opacity="1"></path><path fill="none" stroke="#e6e6e6" stroke-width="0" stroke-dasharray="none" data-z-index="1" class="highcharts-grid-line" d="M 147.5 61 L 147.5 314" opacity="1"></path><path fill="none" stroke="#e6e6e6" stroke-width="0" stroke-dasharray="none" data-z-index="1" class="highcharts-grid-line" d="M 235.5 61 L 235.5 314" opacity="1"></path><path fill="none" stroke="#e6e6e6" stroke-width="0" stroke-dasharray="none" data-z-index="1" class="highcharts-grid-line" d="M 322.5 61 L 322.5 314" opacity="1"></path><path fill="none" stroke="#e6e6e6" stroke-width="0" stroke-dasharray="none" data-z-index="1" class="highcharts-grid-line" d="M 409.5 61 L 409.5 314" opacity="1"></path><path fill="none" stroke="#e6e6e6" stroke-width="0" stroke-dasharray="none" data-z-index="1" class="highcharts-grid-line" d="M 497.5 61 L 497.5 314" opacity="1"></path><path fill="none" stroke="#e6e6e6" stroke-width="0" stroke-dasharray="none" data-z-index="1" class="highcharts-grid-line" d="M 584.5 61 L 584.5 314" opacity="1"></path></g><g class="highcharts-grid highcharts-yaxis-grid" data-z-index="1" aria-hidden="true"><path fill="none" stroke="#e6e6e6" stroke-width="0" stroke-dasharray="none" data-z-index="1" class="highcharts-grid-line" d="M 56 314.5 L 590 314.5" opacity="1"></path><path fill="none" stroke="#e6e6e6" stroke-width="0" stroke-dasharray="none" data-z-index="1" class="highcharts-grid-line" d="M 56 272.5 L 590 272.5" opacity="1"></path><path fill="none" stroke="#e6e6e6" stroke-width="0" stroke-dasharray="none" data-z-index="1" class="highcharts-grid-line" d="M 56 230.5 L 590 230.5" opacity="1"></path><path fill="none" stroke="#e6e6e6" stroke-width="0" stroke-dasharray="none" data-z-index="1" class="highcharts-grid-line" d="M 56 188.5 L 590 188.5" opacity="1"></path><path fill="none" stroke="#e6e6e6" stroke-width="0" stroke-dasharray="none" data-z-index="1" class="highcharts-grid-line" d="M 56 145.5 L 590 145.5" opacity="1"></path><path fill="none" stroke="#e6e6e6" stroke-width="0" stroke-dasharray="none" data-z-index="1" class="highcharts-grid-line" d="M 56 103.5 L 590 103.5" opacity="1"></path><path fill="none" stroke="#e6e6e6" stroke-width="0" stroke-dasharray="none" data-z-index="1" class="highcharts-grid-line" d="M 56 61.5 L 590 61.5" opacity="1"></path></g><rect fill="none" class="highcharts-plot-border" data-z-index="1" stroke="#cccccc" stroke-width="0" x="56" y="61" width="534" height="253" aria-hidden="true"></rect><g class="highcharts-axis highcharts-xaxis" data-z-index="2" aria-hidden="true"><path fill="none" class="highcharts-tick" stroke="#333333" stroke-width="1" d="M 60.5 314 L 60.5 324" opacity="1"></path><path fill="none" class="highcharts-tick" stroke="#333333" stroke-width="1" d="M 147.5 314 L 147.5 324" opacity="1"></path><path fill="none" class="highcharts-tick" stroke="#333333" stroke-width="1" d="M 235.5 314 L 235.5 324" opacity="1"></path><path fill="none" class="highcharts-tick" stroke="#333333" stroke-width="1" d="M 322.5 314 L 322.5 324" opacity="1"></path><path fill="none" class="highcharts-tick" stroke="#333333" stroke-width="1" d="M 409.5 314 L 409.5 324" opacity="1"></path><path fill="none" class="highcharts-tick" stroke="#333333" stroke-width="1" d="M 497.5 314 L 497.5 324" opacity="1"></path><path fill="none" class="highcharts-tick" stroke="#333333" stroke-width="1" d="M 584.5 314 L 584.5 324" opacity="1"></path><path fill="none" class="highcharts-axis-line" stroke="#333333" stroke-width="1" data-z-index="7" d="M 56 314.5 L 590 314.5"></path></g><g class="highcharts-axis highcharts-yaxis" data-z-index="2" aria-hidden="true"><text x="23.799999713897705" data-z-index="7" text-anchor="middle" transform="translate(0,0) rotate(270 23.799999713897705 187.5)" class="highcharts-axis-title" style="color: rgb(102, 102, 102); font-size: 0.8em; fill: rgb(102, 102, 102);" y="187.5">Wind speed (m/s)</text><path fill="none" class="highcharts-axis-line" stroke="#333333" stroke-width="0" data-z-index="7" d="M 56 61 L 56 314"></path></g><g class="highcharts-series-group" data-z-index="3" filter="none" aria-hidden="false"><g class="highcharts-series highcharts-series-0 highcharts-spline-series highcharts-color-0" data-z-index="0.1" opacity="1" transform="translate(56,61) scale(1 1)" clip-path="url(#highcharts-ylettyw-84-)" aria-hidden="true"><path fill="none" d="M 5.2352941176471 63.25 C 5.2352941176471 63.25 18.32352941176464 37.94999999999999 27.049019607843 37.94999999999999 C 35.7745098039214 37.94999999999999 40.1372549019606 55.660000000004 48.862745098039 67.46666666667 C 57.58823529411741 79.273333333336 61.9509803921566 96.98333333333 70.676470588235 96.98333333333 C 79.4019607843134 96.98333333333 83.76470588235262 75.9 92.490196078431 75.9 C 101.2156862745106 75.9 105.5784313725504 96.98333333333 114.30392156863 96.98333333333 C 123.029411764706 96.98333333333 127.39215686274402 71.68333333333001 136.11764705882 71.68333333333001 C 144.8431372549 71.68333333333001 149.20588235294002 84.33333333332999 157.93137254902 84.33333333332999 C 166.6568627451 84.33333333332999 171.01960784314002 42.16666666667001 179.74509803922 42.16666666667001 C 188.47058823529602 42.16666666667001 192.833333333334 44.69666666666439 201.55882352941 46.38333333333 C 210.28431372549002 48.069999999996384 214.64705882353002 48.06999999999942 223.37254901961 50.599999999999994 C 232.09803921568601 53.12999999999941 236.460784313724 51.44333333333173 245.1862745098 59.033333333330006 C 253.91176470588 66.62333333333174 258.27450980392 84.33333333333002 267 88.55000000000001 C 275.72549019608 92.76666666667 280.08823529412 88.55000000000001 288.8137254902 92.76666666667 C 297.539215686276 96.98333333334 301.901960784314 139.15 310.62745098039 139.15 C 319.35294117647 139.15 323.71568627450995 122.28333333333 332.44117647059 122.28333333333 C 341.16666666666595 122.28333333333 345.529411764704 143.36666666667 354.25490196078 143.36666666667 C 362.98039215686 143.36666666667 367.3431372549 123.96999999999996 376.06862745098 113.85 C 384.79411764706003 103.72999999999998 389.1568627451 99.51333333333754 397.88235294118 92.76666666667 C 406.607843137256 86.02000000000554 410.970588235294 80.11666666667 419.69607843137 80.11666666667 C 428.42156862745 80.11666666667 432.78431372549005 210.833333333333 441.50980392157 210.833333333333 C 450.23529411764594 210.833333333333 454.598039215684 191.43666666666124 463.32352941176 172.88333333333298 C 472.04901960784 154.32999999999603 476.41176470588 134.0900000000026 485.13725490196 118.06666666666999 C 493.86274509803997 102.04333333333739 498.22549019607993 101.20000000000599 506.95098039216 92.76666666667 C 515.6764705882359 84.33333333333799 528.76470588235 75.9 528.76470588235 75.9" class="highcharts-graph" data-z-index="1" stroke="#2caffe" stroke-width="4" stroke-linejoin="round" stroke-linecap="round" filter="none"></path></g><g class="highcharts-markers highcharts-series-0 highcharts-spline-series highcharts-color-0" data-z-index="0.1" opacity="1" transform="translate(56,61) scale(1 1)" clip-path="none" aria-hidden="false" role="region" tabindex="-1" aria-label="Hestavollane, line 1 of 2 with 25 data points." style="outline: none;"><path fill="#2caffe" d="M 5 67 A 4 4 0 1 1 5.0039999993333355 66.99999800000016 Z" stroke="#ffffff" stroke-width="0" opacity="0" class="highcharts-point highcharts-color-0" tabindex="-1" role="img" aria-label="Monday, 13 Jun, 00:00, 4.5 m/s. Hestavollane." style="outline: none;"></path><path fill="#2caffe" d="M 27 42 A 4 4 0 1 1 27.003999999333335 41.99999800000017 Z" stroke="#ffffff" stroke-width="0" opacity="0" class="highcharts-point highcharts-color-0" tabindex="-1" role="img" aria-label="Monday, 13 Jun, 01:00, 5.1 m/s. Hestavollane." style="outline: none;"></path><path fill="#2caffe" d="M 48 71 A 4 4 0 1 1 48.00399999933334 70.99999800000016 Z" stroke="#ffffff" stroke-width="0" opacity="0" class="highcharts-point highcharts-color-0" tabindex="-1" role="img" aria-label="Monday, 13 Jun, 02:00, 4.4 m/s. Hestavollane." style="outline: none;"></path><path fill="#2caffe" d="M 70 101 A 4 4 0 1 1 70.00399999933333 100.99999800000016 Z" stroke="#ffffff" stroke-width="0" opacity="0" class="highcharts-point highcharts-color-0" tabindex="-1" role="img" aria-label="Monday, 13 Jun, 03:00, 3.7 m/s. Hestavollane." style="outline: none;"></path><path fill="#2caffe" d="M 92 80 A 4 4 0 1 1 92.00399999933333 79.99999800000016 Z" stroke="#ffffff" stroke-width="0" opacity="0" class="highcharts-point highcharts-color-0" tabindex="-1" role="img" aria-label="Monday, 13 Jun, 04:00, 4.2 m/s. Hestavollane." style="outline: none;"></path><path fill="#2caffe" d="M 114 101 A 4 4 0 1 1 114.00399999933333 100.99999800000016 Z" stroke="#ffffff" stroke-width="0" opacity="0" class="highcharts-point highcharts-color-0" tabindex="-1" role="img" aria-label="Monday, 13 Jun, 05:00, 3.7 m/s. Hestavollane." style="outline: none;"></path><path fill="#2caffe" d="M 136 76 A 4 4 0 1 1 136.00399999933333 75.99999800000016 Z" stroke="#ffffff" stroke-width="0" opacity="0" class="highcharts-point highcharts-color-0" tabindex="-1" role="img" aria-label="Monday, 13 Jun, 06:00, 4.3 m/s. Hestavollane." style="outline: none;"></path><path fill="#2caffe" d="M 157 88 A 4 4 0 1 1 157.00399999933333 87.99999800000016 Z" stroke="#ffffff" stroke-width="0" opacity="0" class="highcharts-point highcharts-color-0" tabindex="-1" role="img" aria-label="Monday, 13 Jun, 07:00, 4 m/s. Hestavollane." style="outline: none;"></path><path fill="#2caffe" d="M 179 46 A 4 4 0 1 1 179.00399999933333 45.99999800000017 Z" stroke="#ffffff" stroke-width="0" opacity="0" class="highcharts-point highcharts-color-0" tabindex="-1" role="img" aria-label="Monday, 13 Jun, 08:00, 5 m/s. Hestavollane." style="outline: none;"></path><path fill="#2caffe" d="M 201 50 A 4 4 0 1 1 201.00399999933333 49.99999800000017 Z" stroke="#ffffff" stroke-width="0" opacity="0" class="highcharts-point highcharts-color-0" tabindex="-1" role="img" aria-label="Monday, 13 Jun, 09:00, 4.9 m/s. Hestavollane." style="outline: none;"></path><path fill="#2caffe" d="M 223 55 A 4 4 0 1 1 223.00399999933333 54.99999800000017 Z" stroke="#ffffff" stroke-width="0" opacity="0" class="highcharts-point highcharts-color-0" tabindex="-1" role="img" aria-label="Monday, 13 Jun, 10:00, 4.8 m/s. Hestavollane." style="outline: none;"></path><path fill="#2caffe" d="M 245 63 A 4 4 0 1 1 245.00399999933333 62.99999800000017 Z" stroke="#ffffff" stroke-width="0" opacity="0" class="highcharts-point highcharts-color-0" tabindex="-1" role="img" aria-label="Monday, 13 Jun, 11:00, 4.6 m/s. Hestavollane." style="outline: none;"></path><path fill="#2caffe" d="M 267 93 A 4 4 0 1 1 267.00399999933336 92.99999800000016 Z" stroke="#ffffff" stroke-width="0" opacity="0" class="highcharts-point highcharts-color-0" tabindex="-1" role="img" aria-label="Monday, 13 Jun, 12:00, 3.9 m/s. Hestavollane." style="outline: none;"></path><path fill="#2caffe" d="M 288 97 A 4 4 0 1 1 288.00399999933336 96.99999800000016 Z" stroke="#ffffff" stroke-width="0" opacity="0" class="highcharts-point highcharts-color-0" tabindex="-1" role="img" aria-label="Monday, 13 Jun, 13:00, 3.8 m/s. Hestavollane." style="outline: none;"></path><path fill="#2caffe" d="M 310 143 A 4 4 0 1 1 310.00399999933336 142.99999800000018 Z" stroke="#ffffff" stroke-width="0" opacity="0" class="highcharts-point highcharts-color-0" tabindex="-1" role="img" aria-label="Monday, 13 Jun, 14:00, 2.7 m/s. Hestavollane." style="outline: none;"></path><path fill="#2caffe" d="M 332 126 A 4 4 0 1 1 332.00399999933336 125.99999800000016 Z" stroke="#ffffff" stroke-width="0" opacity="0" class="highcharts-point highcharts-color-0" tabindex="-1" role="img" aria-label="Monday, 13 Jun, 15:00, 3.1 m/s. Hestavollane." style="outline: none;"></path><path fill="#2caffe" d="M 354 147 A 4 4 0 1 1 354.00399999933336 146.99999800000018 Z" stroke="#ffffff" stroke-width="0" opacity="0" class="highcharts-point highcharts-color-0" tabindex="-1" role="img" aria-label="Monday, 13 Jun, 16:00, 2.6 m/s. Hestavollane." style="outline: none;"></path><path fill="#2caffe" d="M 376 118 A 4 4 0 1 1 376.00399999933336 117.99999800000016 Z" stroke="#ffffff" stroke-width="0" opacity="0" class="highcharts-point highcharts-color-0" tabindex="-1" role="img" aria-label="Monday, 13 Jun, 17:00, 3.3 m/s. Hestavollane." style="outline: none;"></path><path fill="#2caffe" d="M 397 97 A 4 4 0 1 1 397.00399999933336 96.99999800000016 Z" stroke="#ffffff" stroke-width="0" opacity="0" class="highcharts-point highcharts-color-0" tabindex="-1" role="img" aria-label="Monday, 13 Jun, 18:00, 3.8 m/s. Hestavollane." style="outline: none;"></path><path fill="#2caffe" d="M 419 84 A 4 4 0 1 1 419.00399999933336 83.99999800000016 Z" stroke="#ffffff" stroke-width="0" opacity="0" class="highcharts-point highcharts-color-0" tabindex="-1" role="img" aria-label="Monday, 13 Jun, 19:00, 4.1 m/s. Hestavollane." style="outline: none;"></path><path fill="#2caffe" d="M 441 215 A 4 4 0 1 1 441.00399999933336 214.99999800000018 Z" stroke="#ffffff" stroke-width="0" opacity="0" class="highcharts-point highcharts-color-0" tabindex="-1" role="img" aria-label="Monday, 13 Jun, 20:00, 1 m/s. Hestavollane." style="outline: none;"></path><path fill="#2caffe" d="M 463 177 A 4 4 0 1 1 463.00399999933336 176.99999800000018 Z" stroke="#ffffff" stroke-width="0" opacity="0" class="highcharts-point highcharts-color-0" tabindex="-1" role="img" aria-label="Monday, 13 Jun, 21:00, 1.9 m/s. Hestavollane." style="outline: none;"></path><path fill="#2caffe" d="M 485 122 A 4 4 0 1 1 485.00399999933336 121.99999800000016 Z" stroke="#ffffff" stroke-width="0" opacity="0" class="highcharts-point highcharts-color-0" tabindex="-1" role="img" aria-label="Monday, 13 Jun, 22:00, 3.2 m/s. Hestavollane." style="outline: none;"></path><path fill="#2caffe" d="M 506 97 A 4 4 0 1 1 506.00399999933336 96.99999800000016 Z" stroke="#ffffff" stroke-width="0" opacity="0" class="highcharts-point highcharts-color-0" tabindex="-1" role="img" aria-label="Monday, 13 Jun, 23:00, 3.8 m/s. Hestavollane." style="outline: none;"></path><path fill="#2caffe" d="M 528 80 A 4 4 0 1 1 528.0039999993334 79.99999800000016 Z" stroke="#ffffff" stroke-width="0" opacity="0" class="highcharts-point highcharts-color-0" tabindex="-1" role="img" aria-label="Tuesday, 14 Jun, 00:00, 4.2 m/s. Hestavollane." style="outline: none;"></path></g><g class="highcharts-series highcharts-series-1 highcharts-spline-series highcharts-color-1" data-z-index="0.1" opacity="1" transform="translate(56,61) scale(1 1)" clip-path="url(#highcharts-ylettyw-84-)" aria-hidden="true"><path fill="none" d="M 5.2352941176471 248.7833333333333 C 5.2352941176471 248.7833333333333 18.32352941176464 248.7833333333333 27.049019607843 248.7833333333333 C 35.7745098039214 248.7833333333333 40.1372549019606 248.7833333333333 48.862745098039 248.7833333333333 C 57.58823529411741 248.7833333333333 61.9509803921566 247.09666666666675 70.676470588235 244.5666666666667 C 79.4019607843134 242.03666666666663 83.76470588235262 236.13333333333298 92.490196078431 236.13333333333298 C 101.2156862745106 236.13333333333298 105.5784313725504 236.13333333333298 114.30392156863 236.13333333333298 C 123.029411764706 236.13333333333298 127.39215686274402 240.35 136.11764705882 240.35 C 144.8431372549 240.35 149.20588235294002 236.13333333333298 157.93137254902 236.13333333333298 C 166.6568627451 236.13333333333298 171.01960784314002 245.40999999999914 179.74509803922 248.7833333333333 C 188.47058823529602 252.15666666666593 192.833333333334 253 201.55882352941 253 C 210.28431372549002 253 214.64705882353002 247.09666666666726 223.37254901961 244.5666666666667 C 232.09803921568601 242.0366666666673 236.460784313724 240.35 245.1862745098 240.35 C 253.91176470588 240.35 258.27450980392 253 267 253 C 275.72549019608 253 280.08823529412 253 288.8137254902 253 C 297.539215686276 253 301.901960784314 253 310.62745098039 253 C 319.35294117647 253 323.71568627450995 253 332.44117647059 253 C 341.16666666666595 253 345.529411764704 253 354.25490196078 253 C 362.98039215686 253 367.3431372549 248.7833333333333 376.06862745098 248.7833333333333 C 384.79411764706003 248.7833333333333 389.1568627451 248.7833333333333 397.88235294118 248.7833333333333 C 406.607843137256 248.7833333333333 410.970588235294 248.7833333333333 419.69607843137 248.7833333333333 C 428.42156862745 248.7833333333333 432.78431372549005 253 441.50980392157 253 C 450.23529411764594 253 454.598039215684 248.7833333333333 463.32352941176 248.7833333333333 C 472.04901960784 248.7833333333333 476.41176470588 253 485.13725490196 253 C 493.86274509803997 253 498.22549019607993 253 506.95098039216 253 C 515.6764705882359 253 528.76470588235 253 528.76470588235 253" class="highcharts-graph" data-z-index="1" stroke="#544fc5" stroke-width="4" stroke-linejoin="round" stroke-linecap="round" filter="none"></path></g><g class="highcharts-markers highcharts-series-1 highcharts-spline-series highcharts-color-1" data-z-index="0.1" opacity="1" transform="translate(56,61) scale(1 1)" clip-path="none" aria-hidden="false" role="region" tabindex="-1" aria-label="Vik, line 2 of 2 with 25 data points." style="outline: none;"><path fill="#544fc5" d="M 5 245 L 9 249 L 5 253 L 1 249 Z" stroke="#ffffff" stroke-width="0" opacity="0" class="highcharts-point highcharts-color-1" tabindex="-1" role="img" aria-label="Monday, 13 Jun, 00:00, 0.1 m/s. Vik." style="outline: none;"></path><path fill="#544fc5" d="M 27 245 L 31 249 L 27 253 L 23 249 Z" stroke="#ffffff" stroke-width="0" opacity="0" class="highcharts-point highcharts-color-1" tabindex="-1" role="img" aria-label="Monday, 13 Jun, 01:00, 0.1 m/s. Vik." style="outline: none;"></path><path fill="#544fc5" d="M 48 245 L 52 249 L 48 253 L 44 249 Z" stroke="#ffffff" stroke-width="0" opacity="0" class="highcharts-point highcharts-color-1" tabindex="-1" role="img" aria-label="Monday, 13 Jun, 02:00, 0.1 m/s. Vik." style="outline: none;"></path><path fill="#544fc5" d="M 70 241 L 74 245 L 70 249 L 66 245 Z" stroke="#ffffff" stroke-width="0" opacity="0" class="highcharts-point highcharts-color-1" tabindex="-1" role="img" aria-label="Monday, 13 Jun, 03:00, 0.2 m/s. Vik." style="outline: none;"></path><path fill="#544fc5" d="M 92 232 L 96 236 L 92 240 L 88 236 Z" stroke="#ffffff" stroke-width="0" opacity="0" class="highcharts-point highcharts-color-1" tabindex="-1" role="img" aria-label="Monday, 13 Jun, 04:00, 0.4 m/s. Vik." style="outline: none;"></path><path fill="#544fc5" d="M 114 232 L 118 236 L 114 240 L 110 236 Z" stroke="#ffffff" stroke-width="0" opacity="0" class="highcharts-point highcharts-color-1" tabindex="-1" role="img" aria-label="Monday, 13 Jun, 05:00, 0.4 m/s. Vik." style="outline: none;"></path><path fill="#544fc5" d="M 136 236 L 140 240 L 136 244 L 132 240 Z" stroke="#ffffff" stroke-width="0" opacity="0" class="highcharts-point highcharts-color-1" tabindex="-1" role="img" aria-label="Monday, 13 Jun, 06:00, 0.3 m/s. Vik." style="outline: none;"></path><path fill="#544fc5" d="M 157 232 L 161 236 L 157 240 L 153 236 Z" stroke="#ffffff" stroke-width="0" opacity="0" class="highcharts-point highcharts-color-1" tabindex="-1" role="img" aria-label="Monday, 13 Jun, 07:00, 0.4 m/s. Vik." style="outline: none;"></path><path fill="#544fc5" d="M 179 245 L 183 249 L 179 253 L 175 249 Z" stroke="#ffffff" stroke-width="0" opacity="0" class="highcharts-point highcharts-color-1" tabindex="-1" role="img" aria-label="Monday, 13 Jun, 08:00, 0.1 m/s. Vik." style="outline: none;"></path><path fill="#544fc5" d="M 201 249 L 205 253 L 201 257 L 197 253 Z" stroke="#ffffff" stroke-width="0" opacity="0" class="highcharts-point highcharts-color-1" tabindex="-1" role="img" aria-label="Monday, 13 Jun, 09:00, 0 m/s. Vik." style="outline: none;"></path><path fill="#544fc5" d="M 223 241 L 227 245 L 223 249 L 219 245 Z" stroke="#ffffff" stroke-width="0" opacity="0" class="highcharts-point highcharts-color-1" tabindex="-1" role="img" aria-label="Monday, 13 Jun, 10:00, 0.2 m/s. Vik." style="outline: none;"></path><path fill="#544fc5" d="M 245 236 L 249 240 L 245 244 L 241 240 Z" stroke="#ffffff" stroke-width="0" opacity="0" class="highcharts-point highcharts-color-1" tabindex="-1" role="img" aria-label="Monday, 13 Jun, 11:00, 0.3 m/s. Vik." style="outline: none;"></path><path fill="#544fc5" d="M 267 249 L 271 253 L 267 257 L 263 253 Z" stroke="#ffffff" stroke-width="0" opacity="0" class="highcharts-point highcharts-color-1" tabindex="-1" role="img" aria-label="Monday, 13 Jun, 12:00, 0 m/s. Vik." style="outline: none;"></path><path fill="#544fc5" d="M 288 249 L 292 253 L 288 257 L 284 253 Z" stroke="#ffffff" stroke-width="0" opacity="0" class="highcharts-point highcharts-color-1" tabindex="-1" role="img" aria-label="Monday, 13 Jun, 13:00, 0 m/s. Vik." style="outline: none;"></path><path fill="#544fc5" d="M 310 249 L 314 253 L 310 257 L 306 253 Z" stroke="#ffffff" stroke-width="0" opacity="0" class="highcharts-point highcharts-color-1" tabindex="-1" role="img" aria-label="Monday, 13 Jun, 14:00, 0 m/s. Vik." style="outline: none;"></path><path fill="#544fc5" d="M 332 249 L 336 253 L 332 257 L 328 253 Z" stroke="#ffffff" stroke-width="0" opacity="0" class="highcharts-point highcharts-color-1" tabindex="-1" role="img" aria-label="Monday, 13 Jun, 15:00, 0 m/s. Vik." style="outline: none;"></path><path fill="#544fc5" d="M 354 249 L 358 253 L 354 257 L 350 253 Z" stroke="#ffffff" stroke-width="0" opacity="0" class="highcharts-point highcharts-color-1" tabindex="-1" role="img" aria-label="Monday, 13 Jun, 16:00, 0 m/s. Vik." style="outline: none;"></path><path fill="#544fc5" d="M 376 245 L 380 249 L 376 253 L 372 249 Z" stroke="#ffffff" stroke-width="0" opacity="0" class="highcharts-point highcharts-color-1" tabindex="-1" role="img" aria-label="Monday, 13 Jun, 17:00, 0.1 m/s. Vik." style="outline: none;"></path><path fill="#544fc5" d="M 397 245 L 401 249 L 397 253 L 393 249 Z" stroke="#ffffff" stroke-width="0" opacity="0" class="highcharts-point highcharts-color-1" tabindex="-1" role="img" aria-label="Monday, 13 Jun, 18:00, 0.1 m/s. Vik." style="outline: none;"></path><path fill="#544fc5" d="M 419 245 L 423 249 L 419 253 L 415 249 Z" stroke="#ffffff" stroke-width="0" opacity="0" class="highcharts-point highcharts-color-1" tabindex="-1" role="img" aria-label="Monday, 13 Jun, 19:00, 0.1 m/s. Vik." style="outline: none;"></path><path fill="#544fc5" d="M 441 249 L 445 253 L 441 257 L 437 253 Z" stroke="#ffffff" stroke-width="0" opacity="0" class="highcharts-point highcharts-color-1" tabindex="-1" role="img" aria-label="Monday, 13 Jun, 20:00, 0 m/s. Vik." style="outline: none;"></path><path fill="#544fc5" d="M 463 245 L 467 249 L 463 253 L 459 249 Z" stroke="#ffffff" stroke-width="0" opacity="0" class="highcharts-point highcharts-color-1" tabindex="-1" role="img" aria-label="Monday, 13 Jun, 21:00, 0.1 m/s. Vik." style="outline: none;"></path><path fill="#544fc5" d="M 485 249 L 489 253 L 485 257 L 481 253 Z" stroke="#ffffff" stroke-width="0" opacity="0" class="highcharts-point highcharts-color-1" tabindex="-1" role="img" aria-label="Monday, 13 Jun, 22:00, 0 m/s. Vik." style="outline: none;"></path><path fill="#544fc5" d="M 506 249 L 510 253 L 506 257 L 502 253 Z" stroke="#ffffff" stroke-width="0" opacity="0" class="highcharts-point highcharts-color-1" tabindex="-1" role="img" aria-label="Monday, 13 Jun, 23:00, 0 m/s. Vik." style="outline: none;"></path><path fill="#544fc5" d="M 528 249 L 532 253 L 528 257 L 524 253 Z" stroke="#ffffff" stroke-width="0" opacity="0" class="highcharts-point highcharts-color-1" tabindex="-1" role="img" aria-label="Tuesday, 14 Jun, 00:00, 0 m/s. Vik." style="outline: none;"></path></g></g><g class="highcharts-label highcharts-series-label highcharts-series-label-0 highcharts-color-0" opacity="1" data-z-index="3" transform="translate(244,87)" aria-hidden="true"><path fill="none" class="highcharts-label-box" d="M 0 0" stroke="#2caffe" stroke-width="1"></path><text x="0" data-z-index="1" y="12" style="color: rgb(44, 175, 254); font-size: 0.8em; font-weight: bold; fill: rgb(44, 175, 254);">Hestavollane</text></g><g class="highcharts-label highcharts-series-label highcharts-series-label-1 highcharts-color-1" opacity="1" data-z-index="3" transform="translate(561,297)" aria-hidden="true"><path fill="none" class="highcharts-label-box" d="M 0 0" stroke="#544fc5" stroke-width="1"></path><text x="0" data-z-index="1" y="12" style="color: rgb(84, 79, 197); font-size: 0.8em; font-weight: bold; fill: rgb(84, 79, 197);">Vik</text></g><text x="10" text-anchor="start" class="highcharts-title" data-z-index="4" style="font-size: 1.2em; color: rgb(51, 51, 51); font-weight: bold; fill: rgb(51, 51, 51);" y="25" aria-hidden="true">Wind speed during two days</text><text x="10" text-anchor="start" class="highcharts-subtitle" data-z-index="4" style="color: rgb(102, 102, 102); font-size: 0.8em; fill: rgb(102, 102, 102);" y="46" aria-hidden="true">13th &amp; 14th of June, 2022 at two locations in Vik i Sogn, Norway</text><text x="10" text-anchor="start" class="highcharts-caption" data-z-index="4" style="color: rgb(102, 102, 102); font-size: 0.8em; fill: rgb(102, 102, 102);" y="397" aria-hidden="true"></text><g class="highcharts-legend highcharts-no-tooltip" data-z-index="7" transform="translate(214,355)" aria-hidden="true"><rect fill="none" class="highcharts-legend-box" rx="0" ry="0" stroke="#999999" stroke-width="0" filter="none" x="0" y="0" width="171" height="30"></rect><g data-z-index="1"><g><g class="highcharts-legend-item highcharts-spline-series highcharts-color-0 highcharts-series-0" data-z-index="1" transform="translate(8,3)"><path fill="none" class="highcharts-graph" stroke-width="4" stroke-linecap="round" d="M 2 13 L 14 13" stroke="#2caffe"></path><text x="21" text-anchor="start" data-z-index="2" style="color: rgb(51, 51, 51); cursor: pointer; font-size: 0.8em; text-decoration: none; fill: rgb(51, 51, 51);" y="17">Hestavollane</text></g><g class="highcharts-legend-item highcharts-spline-series highcharts-color-1 highcharts-series-1" data-z-index="1" transform="translate(123.08125305175781,3)"><path fill="none" class="highcharts-graph" stroke-width="4" stroke-linecap="round" d="M 2 13 L 14 13" stroke="#544fc5"></path><text x="21" y="17" text-anchor="start" data-z-index="2" style="color: rgb(51, 51, 51); cursor: pointer; font-size: 0.8em; text-decoration: none; fill: rgb(51, 51, 51);">Vik</text></g></g></g></g><g class="highcharts-axis-labels highcharts-xaxis-labels" data-z-index="7" aria-hidden="true"><text x="61.235294117647" text-anchor="middle" transform="translate(0,0)" style="color: rgb(51, 51, 51); cursor: default; font-size: 0.8em; fill: rgb(51, 51, 51);" y="341" opacity="1">13 Jun</text><text x="148.49019607843" text-anchor="middle" transform="translate(0,0)" style="color: rgb(51, 51, 51); cursor: default; font-size: 0.8em; fill: rgb(51, 51, 51);" y="341" opacity="1">04:00</text><text x="235.74509803922" text-anchor="middle" transform="translate(0,0)" style="color: rgb(51, 51, 51); cursor: default; font-size: 0.8em; fill: rgb(51, 51, 51);" y="341" opacity="1">08:00</text><text x="323" text-anchor="middle" transform="translate(0,0)" style="color: rgb(51, 51, 51); cursor: default; font-size: 0.8em; fill: rgb(51, 51, 51);" y="341" opacity="1">12:00</text><text x="410.25490196078" text-anchor="middle" transform="translate(0,0)" style="color: rgb(51, 51, 51); cursor: default; font-size: 0.8em; fill: rgb(51, 51, 51);" y="341" opacity="1">16:00</text><text x="497.50980392157" text-anchor="middle" transform="translate(0,0)" style="color: rgb(51, 51, 51); cursor: default; font-size: 0.8em; fill: rgb(51, 51, 51);" y="341" opacity="1">20:00</text><text x="570.7437496185303" text-anchor="middle" transform="translate(0,0)" style="color: rgb(51, 51, 51); cursor: default; font-size: 0.8em; fill: rgb(51, 51, 51);" y="341" opacity="1">14 Jun</text></g><g class="highcharts-axis-labels highcharts-yaxis-labels" data-z-index="7" aria-hidden="true"><text x="41" text-anchor="end" transform="translate(0,0)" style="color: rgb(51, 51, 51); cursor: default; font-size: 0.8em; fill: rgb(51, 51, 51);" y="319" opacity="1">0</text><text x="41" text-anchor="end" transform="translate(0,0)" style="color: rgb(51, 51, 51); cursor: default; font-size: 0.8em; fill: rgb(51, 51, 51);" y="277" opacity="1">1</text><text x="41" text-anchor="end" transform="translate(0,0)" style="color: rgb(51, 51, 51); cursor: default; font-size: 0.8em; fill: rgb(51, 51, 51);" y="235" opacity="1">2</text><text x="41" text-anchor="end" transform="translate(0,0)" style="color: rgb(51, 51, 51); cursor: default; font-size: 0.8em; fill: rgb(51, 51, 51);" y="193" opacity="1">3</text><text x="41" text-anchor="end" transform="translate(0,0)" style="color: rgb(51, 51, 51); cursor: default; font-size: 0.8em; fill: rgb(51, 51, 51);" y="151" opacity="1">4</text><text x="41" text-anchor="end" transform="translate(0,0)" style="color: rgb(51, 51, 51); cursor: default; font-size: 0.8em; fill: rgb(51, 51, 51);" y="108" opacity="1">5</text><text x="41" text-anchor="end" transform="translate(0,0)" style="color: rgb(51, 51, 51); cursor: default; font-size: 0.8em; fill: rgb(51, 51, 51);" y="66" opacity="1">6</text></g><text x="590" class="highcharts-credits" text-anchor="end" data-z-index="8" y="395" style="cursor: pointer; color: rgb(153, 153, 153); font-size: 0.6em; fill: rgb(153, 153, 153);" aria-label="Chart credits: Highcharts.com" aria-hidden="false">Highcharts.com</text></svg>