<?xml version="1.0" standalone="no"?><!DOCTYPE svg PUBLIC "-//W3C//DTD SVG 1.1//EN" "http://www.w3.org/Graphics/SVG/1.1/DTD/svg11.dtd"><svg xmlns:xlink="http://www.w3.org/1999/xlink" version="1.1" class="highcharts-root" style="font-family: Helvetica, Arial, sans-serif; font-size: 1rem;" xmlns="http://www.w3.org/2000/svg" width="600" height="400" viewBox="0 0 600 400" aria-label="Interactive chart" aria-hidden="false"><desc aria-hidden="true">Created with Highcharts 11.1.0</desc><defs aria-hidden="true"><filter id="highcharts-drop-shadow-1"><feDropShadow dx="1" dy="1" flood-color="#000000" flood-opacity="0.75" stdDeviation="2.5"></feDropShadow></filter><clipPath id="highcharts-7qnywnp-32-"><rect x="0" y="0" width="522" height="253" fill="none"></rect></clipPath><clipPath id="highcharts-7qnywnp-45-"><rect x="0" y="0" width="522" height="253" fill="none"></rect></clipPath></defs><rect fill="#ffffff" class="highcharts-background" filter="none" x="0" y="0" width="600" height="400" rx="0" ry="0" aria-hidden="true"></rect><rect fill="none" class="highcharts-plot-background" x="68" y="61" width="522" height="253" filter="none" aria-hidden="true"></rect><g class="highcharts-grid highcharts-xaxis-grid" data-z-index="1" aria-hidden="true"><path fill="none" stroke="#e6e6e6" stroke-width="0" stroke-dasharray="none" data-z-index="1" class="highcharts-grid-line" d="M 111.5 61 L 111.5 314" opacity="1"></path><path fill="none" stroke="#e6e6e6" stroke-width="0" stroke-dasharray="none" data-z-index="1" class="highcharts-grid-line" d="M 154.5 61 L 154.5 314" opacity="1"></path><path fill="none" stroke="#e6e6e6" stroke-width="0" stroke-dasharray="none" data-z-index="1" class="highcharts-grid-line" d="M 198.5 61 L 198.5 314" opacity="1"></path><path fill="none" stroke="#e6e6e6" stroke-width="0" stroke-dasharray="none" data-z-index="1" class="highcharts-grid-line" d="M 241.5 61 L 241.5 314" opacity="1"></path><path fill="none" stroke="#e6e6e6" stroke-width="0" stroke-dasharray="none" data-z-index="1" class="highcharts-grid-line" d="M 285.5 61 L 285.5 314" opacity="1"></path><path fill="none" stroke="#e6e6e6" stroke-width="0" stroke-dasharray="none" data-z-index="1" class="highcharts-grid-line" d="M 328.5 61 L 328.5 314" opacity="1"></path><path fill="none" stroke="#e6e6e6" stroke-width="0" stroke-dasharray="none" data-z-index="1" class="highcharts-grid-line" d="M 372.5 61 L 372.5 314" opacity="1"></path><path fill="none" stroke="#e6e6e6" stroke-width="0" stroke-dasharray="none" data-z-index="1" class="highcharts-grid-line" d="M 415.5 61 L 415.5 314" opacity="1"></path><path fill="none" stroke="#e6e6e6" stroke-width="0" stroke-dasharray="none" data-z-index="1" class="highcharts-grid-line" d="M 459.5 61 L 459.5 314" opacity="1"></path><path fill="none" stroke="#e6e6e6" stroke-width="0" stroke-dasharray="none" data-z-index="1" class="highcharts-grid-line" d="M 502.5 61 L 502.5 314" opacity="1"></path><path fill="none" stroke="#e6e6e6" stroke-width="0" stroke-dasharray="none" data-z-index="1" class="highcharts-grid-line" d="M 546.5 61 L 546.5 314" opacity="1"></path><path fill="none" stroke="#e6e6e6" stroke-width="0" stroke-dasharray="none" data-z-index="1" class="highcharts-grid-line" d="M 589.5 61 L 589.5 314" opacity="1"></path><path fill="none" stroke="#e6e6e6" stroke-width="0" stroke-dasharray="none" data-z-index="1" class="highcharts-grid-line" d="M 67.5 61 L 67.5 314" opacity="1"></path></g><g class="highcharts-grid highcharts-yaxis-grid" data-z-index="1" aria-hidden="true"><path fill="none" stroke="#e6e6e6" stroke-width="1" stroke-dasharray="none" data-z-index="1" class="highcharts-grid-line" d="M 68 314.5 L 590 314.5" opacity="1"></path><path fill="none" stroke="#e6e6e6" stroke-width="1" stroke-dasharray="none" data-z-index="1" class="highcharts-grid-line" d="M 68 230.5 L 590 230.5" opacity="1"></path><path fill="none" stroke="#e6e6e6" stroke-width="1" stroke-dasharray="none" data-z-index="1" class="highcharts-grid-line" d="M 68 145.5 L 590 145.5" opacity="1"></path><path fill="none" stroke="#e6e6e6" stroke-width="1" stroke-dasharray="none" data-z-index="1" class="highcharts-grid-line" d="M 68 60.5 L 590 60.5" opacity="1"></path></g><rect fill="none" class="highcharts-plot-border" data-z-index="1" stroke="#cccccc" stroke-width="0" x="68" y="61" width="522" height="253" aria-hidden="true"></rect><g class="highcharts-axis highcharts-xaxis" data-z-index="2" aria-hidden="true"><path fill="none" class="highcharts-axis-line" stroke="#333333" stroke-width="1" data-z-index="7" d="M 68 314.5 L 590 314.5"></path></g><g class="highcharts-axis highcharts-yaxis" data-z-index="2" aria-hidden="true"><text x="23.63749885559082" data-z-index="7" text-anchor="middle" transform="translate(0,0) rotate(270 23.63749885559082 187.5)" class="highcharts-axis-title" style="color: rgb(102, 102, 102); font-size: 0.8em; fill: rgb(102, 102, 102);" y="187.5">Temperature</text><path fill="none" class="highcharts-axis-line" stroke="#333333" stroke-width="0" data-z-index="7" d="M 68 61 L 68 314"></path></g><g class="highcharts-series-group" data-z-index="3" filter="none" aria-hidden="false"><g class="highcharts-series highcharts-series-0 highcharts-spline-series highcharts-color-0" data-z-index="0.1" opacity="1" transform="translate(68,61) scale(1 1)" clip-path="url(#highcharts-7qnywnp-45-)" aria-hidden="true"><path fill="none" d="M 21.75 209.146666666667 C 21.75 209.146666666667 47.85 209.146666666667 65.25 204.93 C 82.65 200.71333333333303 91.35 193.46066666666601 108.75 179.63 C 126.15 165.799333333334 134.85 151.800000000004 152.25 135.77666666667 C 169.65 119.753333333336 178.35 112.16333333332999 195.75 99.51333333333 C 213.15 86.86333333332999 221.85 83.996000000002 239.25 72.52666666667 C 256.65 61.05733333333801 265.35 50.60000000000401 282.75 42.16666666667001 C 300.15 33.73333333333602 308.85 30.360000000000014 326.25 30.360000000000014 C 343.65 30.360000000000014 352.35 45.70866666666599 369.75 60.72 C 387.15 75.73133333333399 395.85 87.369333333336 413.25 105.41666666667001 C 430.65 123.464000000004 439.35 134.25866666667062 456.75 150.95666666667 C 474.15 167.6546666666694 500.25 188.90666666666698 500.25 188.90666666666698" class="highcharts-graph" data-z-index="1" stroke="#2caffe" stroke-width="1" stroke-linejoin="round" stroke-linecap="round" filter="none"></path></g><g class="highcharts-markers highcharts-series-0 highcharts-spline-series highcharts-color-0" data-z-index="0.1" opacity="1" transform="translate(68,61) scale(1 1)" clip-path="none" aria-hidden="false" role="region" tabindex="-1" aria-label="Tokyo, line 1 of 2 with 12 data points." style="outline: none;"><path fill="#2caffe" d="M 17 205 L 25 205 L 25 213 L 17 213 Z" stroke="#666666" stroke-width="1" opacity="1" class="highcharts-point highcharts-color-0" tabindex="-1" role="img" aria-label="Jan, 5.2. Tokyo." style="outline: none;"></path><path fill="#2caffe" d="M 61 201 L 69 201 L 69 209 L 61 209 Z" stroke="#666666" stroke-width="1" opacity="1" class="highcharts-point highcharts-color-0" tabindex="-1" role="img" aria-label="Feb, 5.7. Tokyo." style="outline: none;"></path><path fill="#2caffe" d="M 104 176 L 112 176 L 112 184 L 104 184 Z" stroke="#666666" stroke-width="1" opacity="1" class="highcharts-point highcharts-color-0" tabindex="-1" role="img" aria-label="Mar, 8.7. Tokyo." style="outline: none;"></path><path fill="#2caffe" d="M 148 132 L 156 132 L 156 140 L 148 140 Z" stroke="#666666" stroke-width="1" opacity="1" class="highcharts-point highcharts-color-0" tabindex="-1" role="img" aria-label="Apr, 13.9. Tokyo." style="outline: none;"></path><path fill="#2caffe" d="M 191 96 L 199 96 L 199 104 L 191 104 Z" stroke="#666666" stroke-width="1" opacity="1" class="highcharts-point highcharts-color-0" tabindex="-1" role="img" aria-label="May, 18.2. Tokyo." style="outline: none;"></path><path fill="#2caffe" d="M 235 69 L 243 69 L 243 77 L 235 77 Z" stroke="#666666" stroke-width="1" opacity="1" class="highcharts-point highcharts-color-0" tabindex="-1" role="img" aria-label="Jun, 21.4. Tokyo." style="outline: none;"></path><path fill="#2caffe" d="M 278 38 L 286 38 L 286 46 L 278 46 Z" stroke="#666666" stroke-width="1" opacity="1" class="highcharts-point highcharts-color-0" tabindex="-1" role="img" aria-label="Jul, 25. Tokyo." style="outline: none;"></path><image preserveAspectRatio="none" xlink:href="https://www.highcharts.com/samples/graphics/sun.png" x="326" y="30.360000000000014" width="30" transform="translate(-15,-15)" height="30" stroke="#666666" stroke-width="1" fill="#2caffe" opacity="1" class="highcharts-point highcharts-color-0" tabindex="-1" role="img" aria-label="Aug, 26.4. Sunny symbol, this is the warmest point in the chart. Tokyo." style="outline: none;"></image><path fill="#2caffe" d="M 365 57 L 373 57 L 373 65 L 365 65 Z" stroke="#666666" stroke-width="1" opacity="1" class="highcharts-point highcharts-color-0" tabindex="-1" role="img" aria-label="Sep, 22.8. Tokyo." style="outline: none;"></path><path fill="#2caffe" d="M 409 101 L 417 101 L 417 109 L 409 109 Z" stroke="#666666" stroke-width="1" opacity="1" class="highcharts-point highcharts-color-0" tabindex="-1" role="img" aria-label="Oct, 17.5. Tokyo." style="outline: none;"></path><path fill="#2caffe" d="M 452 147 L 460 147 L 460 155 L 452 155 Z" stroke="#666666" stroke-width="1" opacity="1" class="highcharts-point highcharts-color-0" tabindex="-1" role="img" aria-label="Nov, 12.1. Tokyo." style="outline: none;"></path><path fill="#2caffe" d="M 496 185 L 504 185 L 504 193 L 496 193 Z" stroke="#666666" stroke-width="1" opacity="1" class="highcharts-point highcharts-color-0" tabindex="-1" role="img" aria-label="Dec, 7.6. Tokyo." style="outline: none;"></path></g><g class="highcharts-series highcharts-series-1 highcharts-spline-series highcharts-color-1" data-z-index="0.1" opacity="1" transform="translate(68,61) scale(1 1)" clip-path="url(#highcharts-7qnywnp-45-)" aria-hidden="true"><path fill="none" d="M 21.75 240.35 C 21.75 240.35 47.85 240.35 65.25 239.506666666667 C 82.65 238.663333333334 91.35 232.4226666666668 108.75 225.17000000000002 C 126.15 217.9173333333332 134.85 215.387333333333 152.25 203.243333333333 C 169.65 191.099333333333 178.35 177.26866666666658 195.75 164.45 C 213.15 151.63133333333337 221.85 145.89666666666602 239.25 139.15 C 256.65 132.40333333333402 265.35 130.71666666667 282.75 130.71666666667 C 300.15 130.71666666667 308.85 130.71666666667 326.25 131.56 C 343.65 132.40333333333 352.35 146.402666666667 369.75 156.016666666667 C 387.15 165.63066666666697 395.85 168.1606666666668 413.25 179.63 C 430.65 191.0993333333332 439.35 203.0746666666664 456.75 213.363333333333 C 474.15 223.6519999999996 500.25 231.073333333333 500.25 231.073333333333" class="highcharts-graph" data-z-index="1" stroke="#544fc5" stroke-width="1" stroke-linejoin="round" stroke-linecap="round" filter="none"></path></g><g class="highcharts-markers highcharts-series-1 highcharts-spline-series highcharts-color-1" data-z-index="0.1" opacity="1" transform="translate(68,61) scale(1 1)" clip-path="none" aria-hidden="false" role="region" tabindex="-1" aria-label="Bergen, line 2 of 2 with 12 data points." style="outline: none;"><image preserveAspectRatio="none" xlink:href="https://www.highcharts.com/samples/graphics/snow.png" x="21" y="240.35" width="30" transform="translate(-15,-15)" height="30" stroke="#666666" stroke-width="1" fill="#544fc5" opacity="1" class="highcharts-point highcharts-color-1" tabindex="-1" role="img" aria-label="Jan, 1.5. Snowy symbol, this is the coldest point in the chart. Bergen." style="outline: none;"></image><path fill="#544fc5" d="M 65 236 L 69 240 L 65 244 L 61 240 Z" stroke="#666666" stroke-width="1" opacity="1" class="highcharts-point highcharts-color-1" tabindex="-1" role="img" aria-label="Feb, 1.6. Bergen." style="outline: none;"></path><path fill="#544fc5" d="M 108 221 L 112 225 L 108 229 L 104 225 Z" stroke="#666666" stroke-width="1" opacity="1" class="highcharts-point highcharts-color-1" tabindex="-1" role="img" aria-label="Mar, 3.3. Bergen." style="outline: none;"></path><path fill="#544fc5" d="M 152 199 L 156 203 L 152 207 L 148 203 Z" stroke="#666666" stroke-width="1" opacity="1" class="highcharts-point highcharts-color-1" tabindex="-1" role="img" aria-label="Apr, 5.9. Bergen." style="outline: none;"></path><path fill="#544fc5" d="M 195 160 L 199 164 L 195 168 L 191 164 Z" stroke="#666666" stroke-width="1" opacity="1" class="highcharts-point highcharts-color-1" tabindex="-1" role="img" aria-label="May, 10.5. Bergen." style="outline: none;"></path><path fill="#544fc5" d="M 239 135 L 243 139 L 239 143 L 235 139 Z" stroke="#666666" stroke-width="1" opacity="1" class="highcharts-point highcharts-color-1" tabindex="-1" role="img" aria-label="Jun, 13.5. Bergen." style="outline: none;"></path><path fill="#544fc5" d="M 282 127 L 286 131 L 282 135 L 278 131 Z" stroke="#666666" stroke-width="1" opacity="1" class="highcharts-point highcharts-color-1" tabindex="-1" role="img" aria-label="Jul, 14.5. Bergen." style="outline: none;"></path><path fill="#544fc5" d="M 326 128 L 330 132 L 326 136 L 322 132 Z" stroke="#666666" stroke-width="1" opacity="1" class="highcharts-point highcharts-color-1" tabindex="-1" role="img" aria-label="Aug, 14.4. Bergen." style="outline: none;"></path><path fill="#544fc5" d="M 369 152 L 373 156 L 369 160 L 365 156 Z" stroke="#666666" stroke-width="1" opacity="1" class="highcharts-point highcharts-color-1" tabindex="-1" role="img" aria-label="Sep, 11.5. Bergen." style="outline: none;"></path><path fill="#544fc5" d="M 413 176 L 417 180 L 413 184 L 409 180 Z" stroke="#666666" stroke-width="1" opacity="1" class="highcharts-point highcharts-color-1" tabindex="-1" role="img" aria-label="Oct, 8.7. Bergen." style="outline: none;"></path><path fill="#544fc5" d="M 456 209 L 460 213 L 456 217 L 452 213 Z" stroke="#666666" stroke-width="1" opacity="1" class="highcharts-point highcharts-color-1" tabindex="-1" role="img" aria-label="Nov, 4.7. Bergen." style="outline: none;"></path><path fill="#544fc5" d="M 500 227 L 504 231 L 500 235 L 496 231 Z" stroke="#666666" stroke-width="1" opacity="1" class="highcharts-point highcharts-color-1" tabindex="-1" role="img" aria-label="Dec, 2.6. Bergen." style="outline: none;"></path></g></g><g class="highcharts-label highcharts-series-label highcharts-series-label-0 highcharts-color-0" opacity="1" data-z-index="3" transform="translate(402,75)" aria-hidden="true"><path fill="none" class="highcharts-label-box" d="M 0 0" stroke="#2caffe" stroke-width="1"></path><text x="0" data-z-index="1" y="12" style="color: rgb(44, 175, 254); font-size: 0.8em; font-weight: bold; fill: rgb(44, 175, 254);">Tokyo</text></g><g class="highcharts-label highcharts-series-label highcharts-series-label-1 highcharts-color-1" opacity="1" data-z-index="3" transform="translate(521,295)" aria-hidden="true"><path fill="none" class="highcharts-label-box" d="M 0 0" stroke="#544fc5" stroke-width="1"></path><text x="0" data-z-index="1" y="12" style="color: rgb(84, 79, 197); font-size: 0.8em; font-weight: bold; fill: rgb(84, 79, 197);">Bergen</text></g><text x="300" text-anchor="middle" class="highcharts-title" data-z-index="4" style="font-size: 1.2em; color: rgb(51, 51, 51); font-weight: bold; fill: rgb(51, 51, 51);" y="25" aria-hidden="true">Monthly Average Temperature</text><text x="300" text-anchor="middle" class="highcharts-subtitle" data-z-index="4" style="color: rgb(102, 102, 102); font-size: 0.8em; fill: rgb(102, 102, 102);" y="46" aria-hidden="true">Source: <a xlink:href="https://en.wikipedia.org/wiki/List_of_cities_by_average_temperature" target="_blank"><tspan>Wikipedia.com</tspan></a></text><text x="10" text-anchor="start" class="highcharts-caption" data-z-index="4" style="color: rgb(102, 102, 102); font-size: 0.8em; fill: rgb(102, 102, 102);" y="397" aria-hidden="true"></text><g class="highcharts-legend highcharts-no-tooltip" data-z-index="7" transform="translate(224,355)" aria-hidden="true"><rect fill="none" class="highcharts-legend-box" rx="0" ry="0" stroke="#999999" stroke-width="0" filter="none" x="0" y="0" width="152" height="30"></rect><g data-z-index="1"><g><g class="highcharts-legend-item highcharts-spline-series highcharts-color-0 highcharts-series-0" data-z-index="1" transform="translate(8,3)"><path fill="none" class="highcharts-graph" stroke-width="1" stroke-linecap="round" d="M 0.5 13 L 15.5 13" stroke="#2caffe"></path><path fill="#2caffe" d="M 4 9 L 12 9 L 12 17 L 4 17 Z" class="highcharts-point" stroke="#666666" stroke-width="1" opacity="1"></path><text x="21" text-anchor="start" data-z-index="2" style="color: rgb(51, 51, 51); cursor: pointer; font-size: 0.8em; text-decoration: none; fill: rgb(51, 51, 51);" y="17">Tokyo</text></g><g class="highcharts-legend-item highcharts-spline-series highcharts-color-1 highcharts-series-1" data-z-index="1" transform="translate(82.51874923706055,3)"><path fill="none" class="highcharts-graph" stroke-width="1" stroke-linecap="round" d="M 0.5 13 L 15.5 13" stroke="#544fc5"></path><path fill="#544fc5" d="M 8 9 L 12 13 L 8 17 L 4 13 Z" class="highcharts-point" stroke="#666666" stroke-width="1" opacity="1"></path><text x="21" y="17" text-anchor="start" data-z-index="2" style="color: rgb(51, 51, 51); cursor: pointer; font-size: 0.8em; text-decoration: none; fill: rgb(51, 51, 51);">Bergen</text></g></g></g></g><g class="highcharts-axis-labels highcharts-xaxis-labels" data-z-index="7" aria-hidden="true"><text x="89.75" text-anchor="middle" transform="translate(0,0)" style="color: rgb(51, 51, 51); cursor: default; font-size: 0.8em; fill: rgb(51, 51, 51);" y="341" opacity="1">Jan</text><text x="133.25" text-anchor="middle" transform="translate(0,0)" style="color: rgb(51, 51, 51); cursor: default; font-size: 0.8em; fill: rgb(51, 51, 51);" y="341" opacity="1">Feb</text><text x="176.75" text-anchor="middle" transform="translate(0,0)" style="color: rgb(51, 51, 51); cursor: default; font-size: 0.8em; fill: rgb(51, 51, 51);" y="341" opacity="1">Mar</text><text x="220.25" text-anchor="middle" transform="translate(0,0)" style="color: rgb(51, 51, 51); cursor: default; font-size: 0.8em; fill: rgb(51, 51, 51);" y="341" opacity="1">Apr</text><text x="263.75" text-anchor="middle" transform="translate(0,0)" style="color: rgb(51, 51, 51); cursor: default; font-size: 0.8em; fill: rgb(51, 51, 51);" y="341" opacity="1">May</text><text x="307.25" text-anchor="middle" transform="translate(0,0)" style="color: rgb(51, 51, 51); cursor: default; font-size: 0.8em; fill: rgb(51, 51, 51);" y="341" opacity="1">Jun</text><text x="350.75" text-anchor="middle" transform="translate(0,0)" style="color: rgb(51, 51, 51); cursor: default; font-size: 0.8em; fill: rgb(51, 51, 51);" y="341" opacity="1">Jul</text><text x="394.25" text-anchor="middle" transform="translate(0,0)" style="color: rgb(51, 51, 51); cursor: default; font-size: 0.8em; fill: rgb(51, 51, 51);" y="341" opacity="1">Aug</text><text x="437.75" text-anchor="middle" transform="translate(0,0)" style="color: rgb(51, 51, 51); cursor: default; font-size: 0.8em; fill: rgb(51, 51, 51);" y="341" opacity="1">Sep</text><text x="481.25" text-anchor="middle" transform="translate(0,0)" style="color: rgb(51, 51, 51); cursor: default; font-size: 0.8em; fill: rgb(51, 51, 51);" y="341" opacity="1">Oct</text><text x="524.75" text-anchor="middle" transform="translate(0,0)" style="color: rgb(51, 51, 51); cursor: default; font-size: 0.8em; fill: rgb(51, 51, 51);" y="341" opacity="1">Nov</text><text x="568.25" text-anchor="middle" transform="translate(0,0)" style="color: rgb(51, 51, 51); cursor: default; font-size: 0.8em; fill: rgb(51, 51, 51);" y="341" opacity="1">Dec</text></g><g class="highcharts-axis-labels highcharts-yaxis-labels" data-z-index="7" aria-hidden="true"><text x="53" text-anchor="end" transform="translate(0,0)" style="color: rgb(51, 51, 51); cursor: default; font-size: 0.8em; fill: rgb(51, 51, 51);" y="319" opacity="1">0째</text><text x="53" text-anchor="end" transform="translate(0,0)" style="color: rgb(51, 51, 51); cursor: default; font-size: 0.8em; fill: rgb(51, 51, 51);" y="235" opacity="1">10째</text><text x="53" text-anchor="end" transform="translate(0,0)" style="color: rgb(51, 51, 51); cursor: default; font-size: 0.8em; fill: rgb(51, 51, 51);" y="151" opacity="1">20째</text><text x="53" text-anchor="end" transform="translate(0,0)" style="color: rgb(51, 51, 51); cursor: default; font-size: 0.8em; fill: rgb(51, 51, 51);" y="66" opacity="1">30째</text></g><text x="590" class="highcharts-credits" text-anchor="end" data-z-index="8" y="395" style="cursor: pointer; color: rgb(153, 153, 153); font-size: 0.6em; fill: rgb(153, 153, 153);" aria-label="Chart credits: Highcharts.com" aria-hidden="false">Highcharts.com</text></svg>